<svg width="16" height="16" viewBox="0 0 16 16" fill="none" xmlns="http://www.w3.org/2000/svg">
<rect width="16" height="16" fill="#181818"/>
<path d="M4.672 12.036C4.672 11.924 4.676 11.828 4.684 11.748C4.692 11.66 4.708 11.584 4.732 11.52C4.948 11.504 5.116 11.464 5.236 11.4C5.356 11.336 5.44 11.224 5.488 11.064C5.544 10.896 5.572 10.656 5.572 10.344V5.412C5.572 5.14 5.548 4.932 5.5 4.788C5.452 4.644 5.368 4.54 5.248 4.476C5.128 4.412 4.96 4.376 4.744 4.368C4.72 4.304 4.704 4.228 4.696 4.14C4.688 4.044 4.684 3.948 4.684 3.852C4.812 3.86 4.972 3.868 5.164 3.876C5.364 3.876 5.568 3.88 5.776 3.888C5.992 3.888 6.188 3.888 6.364 3.888C6.596 3.888 6.832 3.884 7.072 3.876C7.312 3.868 7.548 3.864 7.78 3.864C8.204 3.864 8.632 3.896 9.064 3.96C9.496 4.016 9.908 4.124 10.3 4.284C10.692 4.436 11.04 4.66 11.344 4.956C11.656 5.244 11.9 5.616 12.076 6.072C12.252 6.52 12.34 7.076 12.34 7.74C12.34 8.388 12.26 8.944 12.1 9.408C11.94 9.872 11.724 10.26 11.452 10.572C11.188 10.884 10.892 11.136 10.564 11.328C10.236 11.52 9.9 11.664 9.556 11.76C9.22 11.856 8.896 11.92 8.584 11.952C8.272 11.984 8.004 12 7.78 12C7.556 12 7.296 12 7 12C6.712 12 6.416 12 6.112 12C5.816 12.008 5.54 12.012 5.284 12.012C5.028 12.02 4.824 12.028 4.672 12.036ZM7.78 11.46C8.26 11.46 8.7 11.404 9.1 11.292C9.508 11.172 9.86 10.98 10.156 10.716C10.46 10.444 10.692 10.08 10.852 9.624C11.02 9.168 11.104 8.6 11.104 7.92C11.104 7.272 11.004 6.72 10.804 6.264C10.612 5.8 10.348 5.428 10.012 5.148C9.684 4.86 9.308 4.652 8.884 4.524C8.468 4.388 8.036 4.32 7.588 4.32C7.412 4.32 7.22 4.336 7.012 4.368C6.804 4.392 6.668 4.424 6.604 4.464L6.7 4.152V10.344C6.7 10.64 6.728 10.868 6.784 11.028C6.84 11.188 6.944 11.3 7.096 11.364C7.256 11.428 7.484 11.46 7.78 11.46Z" fill="#F0EFEB"/>
</svg>
