<svg width="180" height="174" viewBox="0 0 180 174" fill="none" xmlns="http://www.w3.org/2000/svg">
<path d="M70.9689 152.102C32.7955 141.403 10.5249 101.776 21.2271 63.5921C26.5716 44.524 38.6001 31.2899 54.0341 24.1292C69.4941 16.9565 88.4574 15.8422 107.652 21.2222C127.109 26.6755 144.066 33.4687 154.812 43.5787C160.156 48.607 163.942 54.4359 165.753 61.326C167.566 68.2216 167.43 76.2889 164.755 85.8334C159.393 104.964 145.443 124.258 127.996 137.409C110.536 150.569 89.8394 157.392 70.9689 152.102Z" stroke="black" stroke-width="3"/>
<path d="M78.15 102.75C74.45 102.75 71.25 102.1 68.55 100.8C65.8833 99.4666 63.8333 97.5666 62.4 95.1C60.9667 92.6333 60.25 89.7 60.25 86.3C60.25 82.7333 61 79.5833 62.5 76.85C64.0333 74.1166 66.1667 72 68.9 70.5C71.6667 69 74.85 68.25 78.45 68.25C80.5167 68.25 82.4667 68.4833 84.3 68.95C86.1667 69.4166 87.8167 70.0833 89.25 70.95L87.5 76.95C86.2 76.15 84.75 75.5333 83.15 75.1C81.55 74.6333 79.9833 74.4 78.45 74.4C76.25 74.4 74.3 74.8833 72.6 75.85C70.9333 76.7833 69.6333 78.1166 68.7 79.85C67.8 81.55 67.35 83.5333 67.35 85.8C67.35 89.1333 68.35 91.7666 70.35 93.7C72.3833 95.6 75.15 96.55 78.65 96.55C80.05 96.55 81.35 96.45 82.55 96.25V89.35H78.35V83.5H89.2V100.8C85.7667 102.1 82.0833 102.75 78.15 102.75ZM107.818 102.75C105.218 102.75 102.918 102.183 100.918 101.05C98.9513 99.9166 97.418 98.3333 96.318 96.3C95.218 94.2333 94.668 91.85 94.668 89.15C94.668 86.45 95.2013 84.0833 96.268 82.05C97.368 79.9833 98.9013 78.3833 100.868 77.25C102.868 76.1166 105.168 75.55 107.768 75.55C110.368 75.55 112.651 76.1166 114.618 77.25C116.618 78.35 118.151 79.9166 119.218 81.95C120.318 83.9833 120.868 86.3333 120.868 89C120.868 91.7 120.318 94.1 119.218 96.2C118.151 98.2666 116.618 99.8833 114.618 101.05C112.651 102.183 110.385 102.75 107.818 102.75ZM107.768 96.65C109.568 96.65 111.001 95.9666 112.068 94.6C113.168 93.2 113.718 91.3666 113.718 89.1C113.718 86.8333 113.168 85.0333 112.068 83.7C111.001 82.3333 109.568 81.65 107.768 81.65C105.968 81.65 104.518 82.3333 103.418 83.7C102.351 85.0333 101.818 86.8333 101.818 89.1C101.818 91.3666 102.351 93.2 103.418 94.6C104.518 95.9666 105.968 96.65 107.768 96.65Z" fill="#222222"/>
</svg>
