<svg width="50" height="49" viewBox="0 0 50 49" fill="none" xmlns="http://www.w3.org/2000/svg">
<path fill-rule="evenodd" clip-rule="evenodd" d="M5.44064 24.2013C7.23894 18.3885 7.47873 12.7028 8.00521 6.73024C8.10787 5.56383 7.24728 4.53835 6.08448 4.4345C4.92097 4.3306 3.89386 5.19535 3.79051 6.36172C3.29143 12.0251 3.10628 17.4315 1.39931 22.953C1.05379 24.0698 1.67948 25.258 2.7951 25.5992C3.9096 25.9474 5.09582 25.3181 5.44064 24.2013Z" fill="#2D7CF3"/>
<path fill-rule="evenodd" clip-rule="evenodd" d="M17.0915 36.3583C27.463 27.9431 37.4176 16.9183 44.5874 5.61628C45.2127 4.629 44.9205 3.31919 43.9345 2.69603C42.9485 2.07288 41.6403 2.36308 41.015 3.35036C34.082 14.2779 24.4545 24.9406 14.426 33.0724C13.5195 33.81 13.3808 35.1438 14.1164 36.0488C14.852 36.9539 16.1849 37.096 17.0915 36.3583Z" fill="#2D7CF3"/>
<path fill-rule="evenodd" clip-rule="evenodd" d="M19.0053 46.3311C27.9187 48.3468 37.3456 46.3598 45.7412 43.2595C46.8367 42.8509 47.3972 41.6338 46.9932 40.5435C46.5889 39.4461 45.371 38.8869 44.2758 39.2885C36.6295 42.1151 28.0567 44.0395 19.9386 42.2049C18.7997 41.947 17.6662 42.6642 17.4092 43.8003C17.1515 44.9364 17.8671 46.0733 19.0053 46.3311Z" fill="#2D7CF3"/>
</svg>
